<svg xmlns="http://www.w3.org/2000/svg" viewBox="0 0 750 500">
  <g id="freepik--background-complete--inject-20">
    <g>
      <g>
        <g>
          <path d="M673.73379,333.9971h-180.7461c-3.2324,0-5.8623-2.6298-5.8623-5.8623V64.8614c0-3.2325,2.6299-5.8619,5.8623-5.8619h180.7461c3.2323,0,5.86221,2.6294,5.86221,5.8619V328.1348c0,3.2325-2.62991,5.8623-5.86221,5.8623ZM492.98769,59.2495c-3.09469,0-5.6123,2.5177-5.6123,5.6119V328.1348c0,3.0948,2.51761,5.6123,5.6123,5.6123h180.7461c3.0946,0,5.61221-2.5175,5.61221-5.6123V64.8614c0-3.0942-2.51761-5.6119-5.61221-5.6119h-180.7461Z" style="fill:#e0e0e0;"></path>
          <path d="M465.30609,333.9971h-180.7466c-3.2324,0-5.8618-2.6298-5.8618-5.8623V64.8614c0-3.2325,2.6294-5.8619,5.8618-5.8619h180.7466c3.2324,0,5.8623,2.6294,5.8623,5.8619V328.1348c0,3.2325-2.6299,5.8623-5.8623,5.8623ZM284.5595,59.2495c-3.0942,0-5.6118,2.5177-5.6118,5.6119V328.1348c0,3.0948,2.5176,5.6123,5.6118,5.6123h180.7466c3.0947,0,5.6123-2.5175,5.6123-5.6123V64.8614c0-3.0942-2.5176-5.6119-5.6123-5.6119h-180.7466Z" style="fill:#e0e0e0;"></path>
        </g>
        <path d="M257.0123,333.9971H76.2658c-3.2324,0-5.8618-2.6298-5.8618-5.8623V64.8614c0-3.2325,2.6294-5.8619,5.8618-5.8619h180.7465c3.2324,0,5.8623,2.6294,5.8623,5.8619V328.1348c0,3.2325-2.6299,5.8623-5.8623,5.8623ZM76.2658,59.2495c-3.0942,0-5.6118,2.5177-5.6118,5.6119V328.1348c0,3.0948,2.5176,5.6123,5.6118,5.6123h180.7465c3.0948,0,5.6123-2.5175,5.6123-5.6123V64.8614c0-3.0942-2.5175-5.6119-5.6123-5.6119H76.2658Z" style="fill:#e0e0e0;"></path>
        <rect y="365.3111" width="750" height=".1204" style="fill:#e0e0e0;"></rect>
      </g>
      <g>
        <rect x="651.42779" y="383.7382" width="55.7291" height=".4205" style="fill:#e0e0e0;"></rect>
        <rect x="492.845" y="388.3039" width="14.62679" height=".4206" style="fill:#e0e0e0;"></rect>
        <rect x="38.4459" y="370.9408" width="72.6745" height=".4208" style="fill:#e0e0e0;"></rect>
        <rect x="126.10053" y="370.9408" width="10.65547" height=".4208" style="fill:#e0e0e0;"></rect>
        <rect x="171.387" y="378.045" width="157.61289" height=".4205" style="fill:#e0e0e0;"></rect>
      </g>
    </g>
    <!-- Se han eliminado los elementos de la planta aquí -->
    <path d="M606.91589,106.0777c-1.2065-5.8209-3.5132-11.2326-6.6677-16.0388l5.7429-6.9366-12.2777-12.2785-6.9373,5.7421c-4.8064-3.153-10.2182-5.4603-16.0382-6.6669l-.8422-8.9412h-17.3638l-.8426,8.9412c-5.8201,1.2069-11.2322,3.5139-16.0378,6.6669l-6.937-5.7421-12.2784,12.2785,5.7426,6.9372c-3.1542,4.8056-5.4605,10.2173-6.6678,16.0382l-8.9412,.8429v17.3627l8.9412,.843c1.2073,5.8201,3.5136,11.2309,6.6678,16.0375l-5.7426,6.937,12.2784,12.2784,6.937-5.7437c4.8056,3.1553,10.2177,5.4612,16.0378,6.6681l.8426,8.9412h17.3638l.8422-8.9404c5.82-1.2063,11.2318-3.5136,16.0382-6.6689l6.9373,5.7437,12.2777-12.2784-5.7429-6.9364c3.1545-4.8072,5.4612-10.218,6.6677-16.0381l8.9405-.843v-17.3627l-8.9405-.8429Zm-22.19589,9.5239c0,12.9817-10.524,23.5061-23.50651,23.5061s-23.5062-10.5244-23.5062-23.5061,10.524-23.5064,23.5062-23.5064,23.50651,10.5242,23.50651,23.5064Z" style="fill:#f0f0f0;"></path>
    <path d="M271.2919,88.5986c-.9763-4.7099-2.8427-9.0888-5.3952-12.9778l4.6469-5.6128-9.9346-9.9351-5.6133,4.6462c-3.889-2.5512-8.268-4.4182-12.9773-5.3945l-.6815-7.2348h-14.0499l-.6818,7.2348c-4.7093,.9766-9.0885,2.8433-12.977,5.3945l-5.6131-4.6462-9.935,9.9351,4.6466,5.6133c-2.5522,3.8885-4.4184,8.2674-5.3953,12.9773l-7.2348,.6821v14.049l7.2348,.6821c.9769,4.7094,2.8431,9.0875,5.3953,12.9768l-4.6466,5.613,9.935,9.9351,5.6131-4.6475c3.8885,2.5531,8.2677,4.4189,12.977,5.3955l.6818,7.2348h14.0499l.6815-7.2341c4.7093-.9761,9.0883-2.8431,12.9773-5.3962l5.6133,4.6475,9.9346-9.9351-4.6469-5.6125c2.5525-3.8898,4.4189-8.2679,5.3952-12.9773l7.2342-.6821v-14.049l-7.2342-.6821Zm-17.9598,7.7063c0,10.5042-8.5156,19.02-19.0203,19.02s-19.0202-8.5158-19.0202-19.02,8.5156-19.0202,19.0202-19.0202,19.0203,8.5156,19.0203,19.0202Z" style="fill:#f0f0f0;"></path>
    <path d="M338.78659,314.1844c-.9762-4.71-2.84259-9.0889-5.3951-12.9778l4.6468-5.6128-9.9345-9.9351-5.6133,4.6462c-3.889-2.5512-8.268-4.4182-12.9773-5.3945l-.6815-7.2348h-14.0499l-.6818,7.2348c-4.7094,.9766-9.0885,2.8433-12.977,5.3945l-5.6131-4.6462-9.935,9.9351,4.6466,5.6133c-2.5523,3.8884-4.4184,8.2673-5.3953,12.9773l-7.2348,.682v14.0491l7.2348,.6821c.9769,4.7094,2.843,9.0875,5.3953,12.9768l-4.6466,5.613,9.935,9.9351,5.6131-4.6475c3.8885,2.5531,8.2676,4.4189,12.977,5.3955l.6818,7.2348h14.0499l.6815-7.2342c4.7093-.976,9.0883-2.843,12.9773-5.3961l5.6133,4.6475,9.9345-9.9351-4.6468-5.6125c2.55251-3.8898,4.4189-8.2679,5.3951-12.9773l7.2343-.6821v-14.0491l-7.2343-.682Zm-17.9597,7.7063c0,10.5041-8.5156,19.02-19.0203,19.02s-19.0202-8.5159-19.0202-19.02,8.5156-19.0202,19.0202-19.0202,19.0203,8.5156,19.0203,19.0202Z" style="fill:#f0f0f0;"></path>
    <path d="M345.549,84.3188c-.45721-2.2055-1.33111-4.2559-2.52641-6.077l2.176-2.6282-4.652-4.6523-2.6285,2.1757c-1.821-1.1947-3.8715-2.0689-6.0767-2.5261l-.3191-3.3877h-6.5791l-.31919,3.3877c-2.2052,.4573-4.2558,1.3314-6.0766,2.5261l-2.6284-2.1757-4.6522,4.6523,2.1759,2.6284c-1.1952,1.8209-2.069,3.8713-2.5264,6.0768l-3.3878,.3194v6.5786l3.3878,.3194c.4574,2.2052,1.3312,4.2553,2.5264,6.0765l-2.1759,2.6284,4.6522,4.6522,2.6284-2.1763c1.8208,1.1955,3.8714,2.0692,6.0766,2.5265l.31919,3.3878h6.5791l.3191-3.3875c2.2052-.457,4.2557-1.3313,6.0767-2.5268l2.6285,2.1763,4.652-4.6522-2.176-2.6282c1.1953-1.8214,2.0692-3.8715,2.52641-6.0767l3.38749-.3194v-6.5786l-3.38749-.3194Zm-8.40991,3.6086c0,4.9186-3.9875,8.9062-8.9064,8.9062s-8.9064-3.9876-8.9064-8.9062c0-4.9189,3.9875-8.9065,8.9064-8.9065s8.9064,3.9876,8.9064,8.9065Z" style="fill:#f0f0f0;"></path>
    <path d="M312.0436,58.5744c-.3019-1.4568-.8792-2.8111-1.6686-4.0139l1.4372-1.736-3.0726-3.0728-1.7362,1.4371c-1.2028-.7891-2.5572-1.3666-4.0137-1.6685l-.2108-2.2377h-4.3454l-.2109,2.2377c-1.4566,.302-2.811,.8794-4.0136,1.6685l-1.7361-1.4371-3.0728,3.0728,1.4372,1.7361c-.7894,1.2027-1.3666,2.557-1.6687,4.0138l-2.2377,.2109v4.3452l2.2377,.211c.3021,1.4566,.8793,2.8106,1.6687,4.0136l-1.4372,1.736,3.0728,3.0728,1.7361-1.4374c1.2026,.7896,2.557,1.3667,4.0136,1.6688l.2109,2.2376h4.3454l.2108-2.2374c1.4565-.3019,2.8109-.8794,4.0137-1.669l1.7362,1.4374,3.0726-3.0728-1.4372-1.7359c.7894-1.2031,1.3667-2.5571,1.6686-4.0137l2.2375-.211v-4.3452l-2.2375-.2109Zm-5.5547,2.3835c0,3.2488-2.6338,5.8826-5.8828,5.8826s-5.8827-2.6338-5.8827-5.8826c0-3.249,2.6338-5.8828,5.8827-5.8828s5.8828,2.6338,5.8828,5.8828Z" style="fill:#f0f0f0;"></path>
    <path d="M162.704,285.7095c-.6168-2.9755-1.7959-5.7418-3.4084-8.1987l2.9356-3.5458-6.276-6.2765-3.5462,2.9353c-2.4569-1.6118-5.2232-2.7912-8.1983-3.408l-.4305-4.5705h-8.87597l-.43069,4.5705c-2.97511,.617-5.7416,1.7962-8.19813,3.408l-3.54601-2.9353-6.2764,6.2765,2.93547,3.5461c-1.61237,2.4566-2.79129,5.2229-3.40843,8.1984l-4.57054,.4308v8.8754l4.57054,.4309c.61714,2.9751,1.79606,5.741,3.40843,8.198l-2.93547,3.546,6.2764,6.2764,3.54601-2.936c2.45653,1.6129,5.22302,2.7916,8.19813,3.4086l.43069,4.5705h8.87597l.4305-4.5701c2.9751-.6167,5.7414-1.7961,8.1983-3.409l3.5462,2.936,6.276-6.2764-2.9356-3.5457c1.6125-2.4573,2.7916-5.2232,3.4084-8.1983l4.5701-.4309v-8.8754l-4.5701-.4308Zm-11.346,4.8684c0,6.6359-5.3796,12.0157-12.0159,12.0157s-12.01583-5.3798-12.01583-12.0157,5.37963-12.0159,12.01583-12.0159,12.0159,5.3797,12.0159,12.0159Z" style="fill:#f0f0f0;"></path>
    <path d="M684.59529,146.5211c-.7027-3.3898-2.0459-6.5412-3.8829-9.3401l3.3443-4.0395-7.1499-7.1503-4.03979,3.3439c-2.799-1.8361-5.95051-3.1798-9.33981-3.8825l-.4904-5.2068h-10.1117l-.4907,5.2068c-3.3893,.7029-6.541,2.0464-9.3395,3.8825l-4.0397-3.3439-7.1503,7.1503,3.3442,4.0398c-1.8368,2.7986-3.1799,5.95-3.883,9.3398l-5.2068,.4909v10.111l5.2068,.4909c.7031,3.3894,2.0462,6.5403,3.883,9.3394l-3.3442,4.0397,7.1503,7.1502,4.0397-3.3448c2.7985,1.8375,5.9502,3.1803,9.3395,3.8832l.4907,5.2068h10.1117l.4904-5.2064c3.3893-.7025,6.54081-2.0461,9.33981-3.8836l4.03979,3.3448,7.1499-7.1502-3.3443-4.0393c1.837-2.7995,3.1802-5.9504,3.8829-9.3398l5.2064-.4909v-10.111l-5.2064-.4909Zm-12.9256,5.5462c0,7.5598-6.12869,13.6886-13.6889,13.6886s-13.6887-6.1288-13.6887-13.6886,6.1286-13.6888,13.6887-13.6888,13.6889,6.1287,13.6889,13.6888Z" style="fill:#f0f0f0;"></path>
    <g id="freepik--Window--inject-20">
      <g>
        <rect x="208.7278" y="91.1101" width="340.82429" height="234.7065" rx="11.6725" ry="11.6725" style="fill:#407BFF;"></rect>
        <rect x="208.7278" y="91.1101" width="340.82429" height="234.7065" rx="11.6725" ry="11.6725" style="fill:#fff; opacity:.7;"></rect>
        <g>
          <path d="M216.0155,91.1101h323.24879c5.67799,0,10.2878,4.60981,10.2878,10.2878v7.3447H208.7278v-10.3448c0-4.02219,3.26551-7.2877,7.2877-7.2877Z" style="fill:#407BFF;"></path>
          <path d="M536.427,99.9264c0,2.0692-1.67731,3.7466-3.74661,3.7466-2.0691,0-3.74639-1.6774-3.74639-3.7466s1.67729-3.7466,3.74639-3.7466c2.0693,0,3.74661,1.6775,3.74661,3.7466Z" style="fill:#fff; opacity:.3;"></path>
          <path d="M525.779,99.9264c0,2.0692-1.67731,3.7466-3.74641,3.7466s-3.74659-1.6774-3.74659-3.7466,1.67739-3.7466,3.74659-3.7466,3.74641,1.6775,3.74641,3.7466Z" style="fill:#fff; opacity:.3;"></path>
          <circle cx="511.38459" cy="99.9264" r="3.74655" style="fill:#fff; opacity:.3;"></circle>
          <g>
            <path d="M268.2977,83.2573h29.4011" style="fill:none; stroke:#407BFF; stroke-linecap:round; stroke-linejoin:round;"></path>
            <path d="M305.7974,83.2573h6.1228" style="fill:none; stroke:#407BFF; stroke-linecap:round; stroke-linejoin:round;"></path>
          </g>
        </g>
        <path d="M500.65229,129.1956H249.9467c-5.9041,0-10.6904,4.7862-10.6904,10.6903s4.7863,10.6903,10.6904,10.6903h250.70559c5.9041,0,10.6903-4.7862,10.6903-10.6903s-4.7862-10.6903-10.6903-10.6903Z" style="opacity:.1;"></path>
        <g>
          <path d="M500.65229,144.7672H249.9467c-5.9041,0-10.6904-4.7862-10.6904-10.6903h0c0-5.9041,4.7863-10.6902,10.6904-10.6902h250.70559c5.9041,0,10.6903,4.7861,10.6903,10.6902h0c0,5.9041-4.7862,10.6903-10.6903,10.6903Z" style="fill:#fff;"></path>
          <g>
            <path d="M499.69889,133.5049c0,.9883-.304,1.9057-.8235,2.6637-.8499,1.24-2.2768,2.0535-3.8937,2.0535-2.6052,0-4.7172-2.112-4.7172-4.7172s2.112-4.7172,4.7172-4.7172,4.7172,2.112,4.7172,4.7172Z" style="fill:none; stroke:#407BFF; stroke-miterlimit:10;"></path>
            <line x1="501.82759" y1="139.3661" x2="498.61789" y2="136.8488" style="fill:none; stroke:#407BFF; stroke-linecap:round; stroke-linejoin:round;"></line>
          </g>
        </g>
        <g>
          <path d="M376.86589,176.494h57.9386c2.24331,0,4.0646,1.82129,4.0646,4.0646v57.9387c0,2.24331-1.82129,4.0646-4.0646,4.0646h-57.9387c-2.24326,0-4.0645-1.82124-4.0645-4.0645v-57.9388c0-2.24331,1.82129-4.0646,4.0646-4.0646Z" style="fill:none; stroke:#407BFF; stroke-miterlimit:10; stroke-width:.75px;"></path>
          <line x1="373.91409" y1="241.449" x2="437.66249" y2="177.7006" style="fill:none; stroke:#407BFF; stroke-miterlimit:10; stroke-width:.75px;"></line>
          <line x1="373.91409" y1="177.6068" x2="437.66249" y2="241.3552" style="fill:none; stroke:#407BFF; stroke-miterlimit:10; stroke-width:.75px;"></line>
        </g>
        <g>
          <path d="M459.32199,176.494h57.93879c2.24326,0,4.06451,1.82125,4.06451,4.06451v57.93879c0,2.24331-1.82129,4.0646-4.0646,4.0646h-57.9387c-2.24326,0-4.0645-1.82124-4.0645-4.0645v-57.9389c0-2.24326,1.82124-4.0645,4.0645-4.0645Z" style="fill:none; stroke:#407BFF; stroke-miterlimit:10; stroke-width:.75px;"></path>
          <line x1="456.37029" y1="241.449" x2="520.11869" y2="177.7006" style="fill:none; stroke:#407BFF; stroke-miterlimit:10; stroke-width:.75px;"></line>
          <line x1="456.37029" y1="177.6068" x2="520.11869" y2="241.3552" style="fill:none; stroke:#407BFF; stroke-miterlimit:10; stroke-width:.75px;"></line>
        </g>
        <rect x="372.75439" y="254.9495" width="64.7007" height="3.0973" style="fill:#407BFF;"></rect>
        <rect x="372.75439" y="264.2093" width="64.7007" height="3.0974" style="fill:#407BFF;"></rect>
        <rect x="372.75439" y="273.3614" width="39.8145" height="3.0974" style="fill:#407BFF;"></rect>
        <rect x="458.85219" y="254.9495" width="64.7007" height="3.0973" style="fill:#407BFF;"></rect>
        <rect x="458.85219" y="264.2093" width="64.7007" height="3.0974" style="fill:#407BFF;"></rect>
        <rect x="458.85219" y="273.3614" width="39.8145" height="3.0974" style="fill:#407BFF;"></rect>
        <rect x="241.2208" y="146.4797" width="105.0358" height="104.8609" rx="4.9361" ry="4.9361" style="opacity:.2;"></rect>
        <g>
          <g>
            <g>
              <rect x="233.5561" y="139.0436" width="105.0358" height="104.861" rx="4.9361" ry="4.9361" style="fill:#407BFF;"></rect>
              <rect x="233.5561" y="139.0436" width="105.0358" height="104.861" rx="4.9361" ry="4.9361" style="fill:#fff; opacity:.5;"></rect>
              <path d="M238.1829,139.0436h95.8634c2.50878,0,4.5456,2.03682,4.5456,4.5456v8.4779h-105.0358v-8.3967c0-2.5536,2.0732-4.6268,4.6268-4.6268Z" style="fill:#407BFF;"></path>
            </g>
            <g>
              <path d="M324.29919,146.2836c0,1.5236-1.235,2.7587-2.7585,2.7587-1.5236,0-2.7586-1.2351-2.7586-2.7587,0-1.5235,1.235-2.7586,2.7586-2.7586,1.5235,0,2.7585,1.2351,2.7585,2.7586Z" style="fill:#fff; opacity:.5;"></path>
              <path d="M316.459,146.2836c0,1.5236-1.2349,2.7587-2.7585,2.7587-1.5235,0-2.7585-1.2351-2.7585-2.7587,0-1.5235,1.235-2.7586,2.7585-2.7586,1.5236,0,2.7585,1.2351,2.7585,2.7586Z" style="fill:#fff; opacity:.5;"></path>
              <path d="M308.6189,146.2836c0,1.5236-1.2349,2.7587-2.7586,2.7587-1.5235,0-2.7585-1.2351-2.7585-2.7587,0-1.5235,1.235-2.7586,2.7585-2.7586,1.5237,0,2.7586,1.2351,2.7586,2.7586Z" style="fill:#fff; opacity:.5;"></path>
            </g>
          </g>
          <g>
            <path d="M254.6321,164.4588h66.4575c3.3647,0,6.0964,2.73171,6.0964,6.0964v49.7689c0,3.36469-2.73171,6.0964-6.0964,6.0964h-70.0311c-3.36475,0-6.0965-2.73175-6.0965-6.0965v-46.1951c0-5.33707,4.33303-9.6701,9.6701-9.6701Z" style="fill:#fff; opacity:.5;"></path>
            <g>
              <path d="M282.2644,203.4446h-17.4429l-3.6108,8.2056h-4.8296l14.8643-32.8232h4.642l14.9112,32.8232h-4.9234l-3.6108-8.2056Zm-1.6411-3.7514l-7.0806-16.0835-7.0801,16.0835h14.1607Z" style="fill:#407BFF;"></path>
              <path d="M314.7073,196.6453v15.0049h-4.2671v-3.2822c-1.5005,2.2505-4.2671,3.5634-8.1587,3.5634-5.627,0-9.1904-3.0009-9.1904-7.3149,0-3.9853,2.5786-7.2681,9.9873-7.2681h7.1274v-.8906c0-3.7983-2.2036-6.0019-6.6582-6.0019-2.9541,0-5.9551,1.0317-7.8779,2.6728l-1.8755-3.3765c2.5791-2.0629,6.2832-3.1884,10.269-3.1884,6.7989,0,10.6441,3.2822,10.6441,10.0815Zm-4.5015,7.4087v-3.4697h-6.9399c-4.4546,0-5.7203,1.7348-5.7203,3.8447,0,2.4854,2.063,4.0327,5.4859,4.0327,3.376,0,6.0488-1.5473,7.1743-4.4077Z" style="fill:#407BFF;"></path>
            </g>
          </g>
        </g>
        <rect x="373.18359" y="295.8337" width="152.7158" height="12.4695" style="fill:none; stroke:#407BFF; stroke-miterlimit:10; stroke-width:.75px;"></rect>
        <rect x="240.2764" y="263.4519" width="105.9802" height="6.0063" style="fill:none; stroke:#407BFF; stroke-miterlimit:10; stroke-width:.75px;"></rect>
        <rect x="240.2764" y="277.2973" width="105.9802" height="6.0063" style="fill:none; stroke:#407BFF; stroke-miterlimit:10; stroke-width:.75px;"></rect>
        <rect x="240.2764" y="291.1428" width="105.9802" height="6.0063" style="fill:none; stroke:#407BFF; stroke-miterlimit:10; stroke-width:.75px;"></rect>
      </g>
    </g>
    <g id="freepik--Colors--inject-20">
      <g>
        <rect x="405.21789" y="344.9844" width="144.7448" height="54.5318" rx="6.0093" ry="6.0093" style="fill:#407BFF;"></rect>
        <rect x="405.21789" y="344.9844" width="144.7448" height="54.5318" rx="6.0093" ry="6.0093" style="fill:#fff; opacity:.7;"></rect>
        <rect x="418.73019" y="356.9373" width="30.626" height="30.626" rx="2.4697" ry="2.4697" style="fill:#407BFF;"></rect>
        <rect x="418.73019" y="356.9373" width="30.626" height="30.626" rx="2.4697" ry="2.4697" style="fill:#fff; opacity:.3;"></rect>
        <rect x="460.72879" y="356.9373" width="30.626" height="30.626" rx="2.4697" ry="2.4697" style="fill:#407BFF;"></rect>
        <rect x="502.72739" y="356.9373" width="30.626" height="30.626" rx="2.4697" ry="2.4697" style="fill:#407BFF;"></rect>
        <rect x="502.72739" y="356.9373" width="30.626" height="30.626" rx="2.4697" ry="2.4697" style="opacity:.3;"></rect>
      </g>
    </g>
    <g id="freepik--Image--inject-20">
      <g>
        <g>
          <g>
            <rect x="563.68339" y="68.2216" width="96.1113" height="80.8193" rx="4.9361" ry="4.9361" style="fill:#407BFF;"></rect>
            <rect x="563.68339" y="68.2216" width="96.1113" height="80.8193" rx="4.9361" ry="4.9361" style="fill:#fff; opacity:.5;"></rect>
            <path d="M568.31019,68.2216h86.9389c2.50878,0,4.5456,2.03682,4.5456,4.5456v9.5473h-96.1113v-9.4661c0-2.5536,2.0732-4.6268,4.6268-4.6268Z" style="fill:#407BFF;"></path>
          </g>
          <g>
            <path d="M654.36709,76.2955c0,1.6991-1.3773,3.0765-3.0763,3.0765s-3.0763-1.3774-3.0763-3.0765c0-1.699,1.3773-3.0763,3.0763-3.0763s3.0763,1.3773,3.0763,3.0763Z" style="fill:#fff; opacity:.5;"></path>
            <path d="M645.62389,76.2955c0,1.6991-1.3772,3.0765-3.0763,3.0765-1.699,0-3.0763-1.3774-3.0763-3.0765,0-1.699,1.3773-3.0763,3.0763-3.0763,1.6991,0,3.0763,1.3773,3.0763,3.0763Z" style="fill:#fff; opacity:.5;"></path>
            <path d="M636.88069,76.2955c0,1.6991-1.3772,3.0765-3.0764,3.0765-1.6989,0-3.0762-1.3774-3.0762-3.0765,0-1.699,1.3773-3.0763,3.0762-3.0763,1.6992,0,3.0764,1.3773,3.0764,3.0763Z" style="fill:#fff; opacity:.5;"></path>
          </g>
        </g>
        <g>
          <rect x="578.10139" y="92.6726" width="69.0902" height="47.2662" rx="3.4216" ry="3.4216" style="fill:#407BFF;"></rect>
          <rect x="578.10139" y="92.6726" width="69.0902" height="47.2662" rx="3.4216" ry="3.4216" style="fill:#fff; opacity:.8;"></rect>
          <path d="M579.99529,138.2157l21.5768-19.6311,15.5336,7.2734,18.7318-14.1784,11.3541,7.259v19.2163c0,.9852-1.1675,1.7839-2.60759,1.7839h-63.33121c-1.2974,0-2.0372-1.0138-1.2575-1.7231Z" style="fill:#407BFF;"></path>
          <path d="M622.03619,104.0407c0,3.2351-2.6591,5.8577-5.939,5.8577s-5.939-2.6226-5.939-5.8577c0-3.2353,2.6591-5.8578,5.939-5.8578s5.939,2.6225,5.939,5.8578Z" style="fill:#407BFF;"></path>
        </g>
      </g>
    </g>
    <g id="freepik--Chart--inject-20">
      <g>
        <g>
          <g>
            <rect x="77.5635" y="112.5823" width="91.2" height="76.6893" rx="4.9361" ry="4.9361" style="fill:#407BFF;"></rect>
            <rect x="77.5635" y="112.5823" width="91.2" height="76.6893" rx="4.9361" ry="4.9361" style="fill:#fff; opacity:.5;"></rect>
            <path d="M82.1903,112.5823h82.0276c2.50878,0,4.5456,2.03682,4.5456,4.5456v8.8271H77.5635v-8.7459c0-2.5536,2.0732-4.6268,4.6268-4.6268Z" style="fill:#407BFF;"></path>
          </g>
          <g>
            <path d="M163.6132,120.2436c0,1.6122-1.3069,2.9193-2.919,2.9193-1.6123,0-2.9192-1.3071-2.9192-2.9193s1.3069-2.9191,2.9192-2.9191c1.6121,0,2.919,1.3069,2.919,2.9191Z" style="fill:#fff; opacity:.5;"></path>
            <path d="M155.3168,120.2436c0,1.6122-1.3069,2.9193-2.9191,2.9193-1.6121,0-2.9191-1.3071-2.9191-2.9193s1.307-2.9191,2.9191-2.9191c1.6122,0,2.9191,1.3069,2.9191,2.9191Z" style="fill:#fff; opacity:.5;"></path>
            <path d="M147.0204,120.2436c0,1.6122-1.3068,2.9193-2.9192,2.9193-1.6121,0-2.919-1.3071-2.919-2.9193s1.3069-2.9191,2.919-2.9191c1.6124,0,2.9192,1.3069,2.9192,2.9191Z" style="fill:#fff; opacity:.5;"></path>
          </g>
        </g>
        <g>
          <path d="M121.72978,157.4006l7.90935-21.7297c2.94653,1.0725,5.64427,2.7331,7.92897,4.8808,2.2846,2.1477,4.1088,4.7377,5.3613,7.6124l-21.19962,9.2365Z" style="fill:#f5f5f5;"></path>
          <path d="M121.72978,157.4006l6.7396,22.1203c-2.18457,.6656-4.45583,1.004-6.7396,1.004-12.68558,0-23.12418-10.4387-23.12418-23.1243s10.4386-23.1243,23.12418-23.1243c2.66072,0,5.30157,.4592,7.80606,1.3573l-7.80606,21.767Z" style="fill:#407BFF;"></path>
          <path d="M121.72978,157.4006l21.24342-9.1355c1.2409,2.8858,1.8809,5.9943,1.8809,9.1355,0,10.1133-6.6346,19.1076-16.29709,22.0934l-6.82723-22.0934Z" style="fill:#407BFF;"></path>
          <path d="M121.72978,157.4006l21.24342-9.1355c1.2409,2.8858,1.8809,5.9943,1.8809,9.1355,0,10.1133-6.6346,19.1076-16.29709,22.0934l-6.82723-22.0934Z" style="opacity:.3;"></path>
        </g>
      </g>
    </g>
  </g>
</svg>
